<svg width="100%" height="70" viewBox="0 0 920 70" xmlns="http://www.w3.org/2000/svg">
  <g>
    <image href="https://skillicons.dev/icons?i=python" x="0" y="12" width="46" height="46"/>
    <image href="https://skillicons.dev/icons?i=js" x="70" y="12" width="46" height="46"/>
    <image href="https://skillicons.dev/icons?i=html" x="140" y="12" width="46" height="46"/>
    <image href="https://skillicons.dev/icons?i=css" x="210" y="12" width="46" height="46"/>
    <image href="https://skillicons.dev/icons?i=react" x="280" y="12" width="46" height="46"/>
    <image href="https://skillicons.dev/icons?i=nextjs" x="350" y="12" width="46" height="46"/>
    <image href="https://skillicons.dev/icons?i=vue" x="420" y="12" width="46" height="46"/>
    <image href="https://skillicons.dev/icons?i=wordpress" x="490" y="12" width="46" height="46"/>
    <image href="https://skillicons.dev/icons?i=php" x="560" y="12" width="46" height="46"/>
    <image href="https://skillicons.dev/icons?i=tensorflow" x="630" y="12" width="46" height="46"/>
    <image href="https://skillicons.dev/icons?i=sklearn" x="700" y="12" width="46" height="46"/>
    <image href="https://cdn.jsdelivr.net/gh/devicons/devicon/icons/pandas/pandas-original.svg" x="770" y="12" width="46" height="46"/>
    <image href="https://cdn.jsdelivr.net/gh/devicons/devicon/icons/numpy/numpy-original.svg" x="840" y="12" width="46" height="46"/>
    <image href="https://cdn.jsdelivr.net/gh/devicons/devicon/icons/matplotlib/matplotlib-original.svg" x="910" y="12" width="46" height="46"/>
    <image href="https://cdn.jsdelivr.net/gh/devicons/devicon/icons/jupyter/jupyter-original.svg" x="980" y="12" width="46" height="46"/>
    <image href="https://skillicons.dev/icons?i=git" x="1050" y="12" width="46" height="46"/>
    <image href="https://skillicons.dev/icons?i=github" x="1120" y="12" width="46" height="46"/>
    <image href="https://skillicons.dev/icons?i=vscode" x="1190" y="12" width="46" height="46"/>
    <image href="https://skillicons.dev/icons?i=figma" x="1260" y="12" width="46" height="46"/>
    <image href="https://cdn.jsdelivr.net/gh/devicons/devicon/icons/canva/canva-original.svg" x="1330" y="12" width="46" height="46"/>
    <image href="https://cdn.jsdelivr.net/gh/homarr-labs/dashboard-icons/svg/antigravity-color.svg" x="1400" y="12" width="46" height="46"/>
    <image href="https://skillicons.dev/icons?i=python" x="1470" y="12" width="46" height="46"/>
    <image href="https://skillicons.dev/icons?i=js" x="1540" y="12" width="46" height="46"/>
    <image href="https://skillicons.dev/icons?i=html" x="1610" y="12" width="46" height="46"/>
    <image href="https://skillicons.dev/icons?i=css" x="1680" y="12" width="46" height="46"/>
    <image href="https://skillicons.dev/icons?i=react" x="1750" y="12" width="46" height="46"/>
    <image href="https://skillicons.dev/icons?i=nextjs" x="1820" y="12" width="46" height="46"/>
    <image href="https://skillicons.dev/icons?i=vue" x="1890" y="12" width="46" height="46"/>
    <image href="https://skillicons.dev/icons?i=wordpress" x="1960" y="12" width="46" height="46"/>
    <image href="https://skillicons.dev/icons?i=php" x="2030" y="12" width="46" height="46"/>
    <image href="https://skillicons.dev/icons?i=tensorflow" x="2100" y="12" width="46" height="46"/>
    <image href="https://skillicons.dev/icons?i=sklearn" x="2170" y="12" width="46" height="46"/>
    <image href="https://cdn.jsdelivr.net/gh/devicons/devicon/icons/pandas/pandas-original.svg" x="2240" y="12" width="46" height="46"/>
    <image href="https://cdn.jsdelivr.net/gh/devicons/devicon/icons/numpy/numpy-original.svg" x="2310" y="12" width="46" height="46"/>
    <image href="https://cdn.jsdelivr.net/gh/devicons/devicon/icons/matplotlib/matplotlib-original.svg" x="2380" y="12" width="46" height="46"/>
    <image href="https://cdn.jsdelivr.net/gh/devicons/devicon/icons/jupyter/jupyter-original.svg" x="2450" y="12" width="46" height="46"/>
    <image href="https://skillicons.dev/icons?i=git" x="2520" y="12" width="46" height="46"/>
    <image href="https://skillicons.dev/icons?i=github" x="2590" y="12" width="46" height="46"/>
    <image href="https://skillicons.dev/icons?i=vscode" x="2660" y="12" width="46" height="46"/>
    <image href="https://skillicons.dev/icons?i=figma" x="2730" y="12" width="46" height="46"/>
    <image href="https://cdn.jsdelivr.net/gh/devicons/devicon/icons/canva/canva-original.svg" x="2800" y="12" width="46" height="46"/>
    <image href="https://cdn.jsdelivr.net/gh/homarr-labs/dashboard-icons/svg/antigravity-color.svg" x="2870" y="12" width="46" height="46"/>
    <animateTransform attributeName="transform" attributeType="XML" type="translate"
      from="-1470 0" to="0 0" dur="22s" repeatCount="indefinite" calcMode="linear"/>
  </g>
</svg>
